<svg xmlns="http://www.w3.org/2000/svg" viewBox="0 0 80 80" fill="none">
  <defs>
    <linearGradient id="maneGrad" x1="0" y1="0" x2="80" y2="80" gradientUnits="userSpaceOnUse">
      <stop offset="0%" stop-color="#e2c888"/>
      <stop offset="100%" stop-color="#a07830"/>
    </linearGradient>
  </defs>
  <!-- Outer shield / mane shape -->
  <path d="M40 4 L58 14 L70 30 L72 50 L62 66 L40 76 L18 66 L8 50 L10 30 L22 14 Z"
        fill="url(#maneGrad)" opacity="0.15"/>
  <path d="M40 4 L58 14 L70 30 L72 50 L62 66 L40 76 L18 66 L8 50 L10 30 L22 14 Z"
        fill="none" stroke="url(#maneGrad)" stroke-width="1.5"/>
  <!-- Inner face triangle -->
  <path d="M40 22 L54 46 L26 46 Z"
        fill="none" stroke="#c9a55c" stroke-width="1.2" stroke-linejoin="round"/>
  <!-- Eyes -->
  <circle cx="34" cy="38" r="2" fill="#c9a55c"/>
  <circle cx="46" cy="38" r="2" fill="#c9a55c"/>
  <!-- Nose line -->
  <path d="M40 42 L38 46 L42 46 Z" fill="#c9a55c" opacity="0.7"/>
  <!-- Crown strokes (mane suggestion) -->
  <line x1="40" y1="4" x2="40" y2="14" stroke="#c9a55c" stroke-width="1" opacity="0.4"/>
  <line x1="58" y1="14" x2="52" y2="22" stroke="#c9a55c" stroke-width="1" opacity="0.4"/>
  <line x1="22" y1="14" x2="28" y2="22" stroke="#c9a55c" stroke-width="1" opacity="0.4"/>
</svg>
