<?xml version="1.0" encoding="UTF-8"?>
<svg xmlns="http://www.w3.org/2000/svg" viewBox="0 0 1200 630" width="1200" height="630">
  <defs>
    <radialGradient id="bgGlow" cx="22%" cy="52%" r="58%" gradientUnits="userSpaceOnUse" x1="0" y1="0" x2="1200" y2="630">
      <stop offset="0%" stop-color="#1c1610"/>
      <stop offset="100%" stop-color="#09090b"/>
    </radialGradient>
    <radialGradient id="accentGlow" cx="18%" cy="50%" r="42%" gradientUnits="userSpaceOnUse" x1="0" y1="0" x2="1200" y2="630">
      <stop offset="0%" stop-color="#c9a55c" stop-opacity="0.06"/>
      <stop offset="100%" stop-color="#c9a55c" stop-opacity="0"/>
    </radialGradient>
  </defs>
  <rect width="1200" height="630" fill="url(#bgGlow)"/>
  <rect width="1200" height="630" fill="url(#accentGlow)"/>
  <rect x="28" y="28" width="1144" height="574" fill="none" stroke="#c9a55c" stroke-width="0.8" opacity="0.18"/>
  <g transform="translate(840, 195) scale(3)">
    <path d="M40 4 L58 14 L70 30 L72 50 L62 66 L40 76 L18 66 L8 50 L10 30 L22 14 Z" fill="#c9a55c" opacity="0.06"/>
  </g>
  <g transform="translate(840, 195) scale(3)" fill="none" stroke="#c9a55c">
    <path d="M40 4 L58 14 L70 30 L72 50 L62 66 L40 76 L18 66 L8 50 L10 30 L22 14 Z" stroke-width="1" opacity="0.22"/>
    <path d="M40 22 L54 46 L26 46 Z" stroke-width="0.8" stroke-linejoin="round" opacity="0.18"/>
    <circle cx="34" cy="38" r="2" fill="#c9a55c" stroke="none" opacity="0.2"/>
    <circle cx="46" cy="38" r="2" fill="#c9a55c" stroke="none" opacity="0.2"/>
    <path d="M40 42 L38 46 L42 46 Z" fill="#c9a55c" stroke="none" opacity="0.14"/>
    <line x1="40" y1="4" x2="40" y2="14" stroke-width="1" opacity="0.12"/>
    <line x1="58" y1="14" x2="52" y2="22" stroke-width="1" opacity="0.12"/>
    <line x1="22" y1="14" x2="28" y2="22" stroke-width="1" opacity="0.12"/>
  </g>
  <text x="80" y="205" font-family="'Courier New', Courier, monospace" font-size="13" letter-spacing="4.5" fill="#c9a55c" opacity="0.8">JOHANNESBURG &#183; SOFTWARE ENGINEERING</text>
  <line x1="80" y1="224" x2="430" y2="224" stroke="#c9a55c" stroke-width="0.8" opacity="0.35"/>
  <text x="80" y="320" font-family="Georgia, 'Times New Roman', serif" font-size="84" font-weight="400" letter-spacing="-2" fill="#ece7df">Engineer.</text>
  <text x="80" y="412" font-family="Georgia, 'Times New Roman', serif" font-size="84" font-weight="400" letter-spacing="-2" fill="#ece7df">Builder.</text>
  <text x="80" y="504" font-family="Georgia, 'Times New Roman', serif" font-size="84" font-weight="400" font-style="italic" letter-spacing="-2" fill="#c9a55c">Curious.</text>
  <line x1="80" y1="543" x2="1120" y2="543" stroke="#c9a55c" stroke-width="0.5" opacity="0.14"/>
  <text x="80" y="578" font-family="Georgia, 'Times New Roman', serif" font-size="17" letter-spacing="0.3" fill="#8e8a82">Mayibongwe Sibanda</text>
  <text x="1120" y="578" font-family="'Courier New', Courier, monospace" font-size="13" letter-spacing="2" fill="#5c5952" text-anchor="end">mayi.co.za</text>
</svg>
